<svg width="160" height="160" viewBox="0 0 160 160" fill="none" xmlns="http://www.w3.org/2000/svg">
<path d="M160 160H0V0H160V160Z" stroke="#E5E7EB"/>
<path d="M113.75 110.25H46.25V49.75H113.75V110.25Z" stroke="#E5E7EB"/>
<g clip-path="url(#clip0_6039_1220)">
<path d="M83.3875 51.8594C82.7664 50.5703 81.4539 49.75 80.0125 49.75C78.5711 49.75 77.2703 50.5703 76.6375 51.8594L69.1023 67.3633L52.2742 69.8477C50.8679 70.0586 49.6961 71.043 49.2625 72.3906C48.8289 73.7383 49.1804 75.2266 50.1883 76.2227L62.3992 88.3047L59.5164 105.379C59.282 106.785 59.8679 108.215 61.0281 109.047C62.1883 109.879 63.7234 109.984 64.989 109.316L80.0242 101.289L95.0593 109.316C96.325 109.984 97.8601 109.891 99.0203 109.047C100.18 108.203 100.766 106.785 100.532 105.379L97.6375 88.3047L109.848 76.2227C110.856 75.2266 111.22 73.7383 110.774 72.3906C110.329 71.043 109.169 70.0586 107.762 69.8477L90.9226 67.3633L83.3875 51.8594Z" fill="#FFC107"/>
</g>
<defs>
<clipPath id="clip0_6039_1220">
<path d="M46.25 49.75H113.75V109.75H46.25V49.75Z" fill="white"/>
</clipPath>
</defs>
</svg>
