<svg width="14" height="18" viewBox="0 0 14 18" fill="none" xmlns="http://www.w3.org/2000/svg">
<g clip-path="url(#clip0_4121_981)">
<path d="M0.492188 0.0777303C0.791016 -0.0593791 1.14258 -0.0101604 1.39219 0.204293L2.8125 1.4207L4.23281 0.204293C4.54922 -0.0664104 5.0168 -0.0664104 5.32969 0.204293L6.75 1.4207L8.17031 0.204293C8.48672 -0.0664104 8.9543 -0.0664104 9.26719 0.204293L10.6875 1.4207L12.1078 0.204293C12.3574 -0.0101604 12.709 -0.0593791 13.0078 0.0777303C13.3066 0.21484 13.5 0.513668 13.5 0.844136V17.1566C13.5 17.4871 13.3066 17.7859 13.0078 17.923C12.709 18.0602 12.3574 18.0109 12.1078 17.7965L10.6875 16.5801L9.26719 17.7965C8.95078 18.0672 8.4832 18.0672 8.17031 17.7965L6.75 16.5801L5.32969 17.7965C5.01328 18.0672 4.5457 18.0672 4.23281 17.7965L2.8125 16.5801L1.39219 17.7965C1.14258 18.0109 0.791016 18.0602 0.492188 17.923C0.193359 17.7859 0 17.4871 0 17.1566V0.844136C0 0.513668 0.193359 0.21484 0.492188 0.0777303ZM3.375 5.06289C3.06562 5.06289 2.8125 5.31601 2.8125 5.62539C2.8125 5.93476 3.06562 6.18789 3.375 6.18789H10.125C10.4344 6.18789 10.6875 5.93476 10.6875 5.62539C10.6875 5.31601 10.4344 5.06289 10.125 5.06289H3.375ZM2.8125 12.3754C2.8125 12.6848 3.06562 12.9379 3.375 12.9379H10.125C10.4344 12.9379 10.6875 12.6848 10.6875 12.3754C10.6875 12.066 10.4344 11.8129 10.125 11.8129H3.375C3.06562 11.8129 2.8125 12.066 2.8125 12.3754ZM3.375 8.43789C3.06562 8.43789 2.8125 8.69101 2.8125 9.00039C2.8125 9.30976 3.06562 9.56289 3.375 9.56289H10.125C10.4344 9.56289 10.6875 9.30976 10.6875 9.00039C10.6875 8.69101 10.4344 8.43789 10.125 8.43789H3.375Z" fill="#F0C419"/>
</g>
<defs>
<clipPath id="clip0_4121_981">
<path d="M0 0H13.5V18H0V0Z" fill="white"/>
</clipPath>
</defs>
</svg>
