<svg width="20" height="20" viewBox="0 0 20 20" fill="none" xmlns="http://www.w3.org/2000/svg">
<g clip-path="url(#clip0_6051_728)">
<path d="M10 1.25C10.5547 1.25 11.0664 1.54297 11.3477 2.02344L19.7852 16.3984C20.0703 16.8828 20.0703 17.4805 19.793 17.9648C19.5156 18.4492 18.9961 18.75 18.4375 18.75H1.56252C1.00393 18.75 0.484398 18.4492 0.207054 17.9648C-0.0702894 17.4805 -0.0663832 16.8789 0.214867 16.3984L8.65237 2.02344C8.93362 1.54297 9.44534 1.25 10 1.25ZM10 6.25C9.48049 6.25 9.06252 6.66797 9.06252 7.1875V11.5625C9.06252 12.082 9.48049 12.5 10 12.5C10.5196 12.5 10.9375 12.082 10.9375 11.5625V7.1875C10.9375 6.66797 10.5196 6.25 10 6.25ZM11.25 15C11.25 14.6685 11.1183 14.3505 10.8839 14.1161C10.6495 13.8817 10.3315 13.75 10 13.75C9.6685 13.75 9.35056 13.8817 9.11614 14.1161C8.88172 14.3505 8.75002 14.6685 8.75002 15C8.75002 15.3315 8.88172 15.6495 9.11614 15.8839C9.35056 16.1183 9.6685 16.25 10 16.25C10.3315 16.25 10.6495 16.1183 10.8839 15.8839C11.1183 15.6495 11.25 15.3315 11.25 15Z" fill="#FCD34D"/>
</g>
<defs>
<clipPath id="clip0_6051_728">
<path d="M0 0H20V20H0V0Z" fill="white"/>
</clipPath>
</defs>
</svg>
