<svg width="14" height="18" viewBox="0 0 14 18" fill="none" xmlns="http://www.w3.org/2000/svg">
<g clip-path="url(#clip0_6051_830)">
<path d="M0.5625 2.25C0.5625 1.00898 1.57148 0 2.8125 0H10.6875C11.9285 0 12.9375 1.00898 12.9375 2.25V15.75C12.9375 16.991 11.9285 18 10.6875 18H2.8125C1.57148 18 0.5625 16.991 0.5625 15.75V2.25ZM5.0625 15.75C5.0625 16.0594 5.31563 16.3125 5.625 16.3125H7.875C8.18437 16.3125 8.4375 16.0594 8.4375 15.75C8.4375 15.4406 8.18437 15.1875 7.875 15.1875H5.625C5.31563 15.1875 5.0625 15.4406 5.0625 15.75ZM10.6875 2.25H2.8125V13.5H10.6875V2.25Z" fill="#4B5563"/>
</g>
<defs>
<clipPath id="clip0_6051_830">
<path d="M0 0H13.5V18H0V0Z" fill="white"/>
</clipPath>
</defs>
</svg>
