<svg width="12" height="12" viewBox="0 0 12 12" fill="none" xmlns="http://www.w3.org/2000/svg">
<path d="M6.125 2.89844V5.96094L8.75 7.51953L8.3125 8.25781L5.25 6.39844V2.89844H6.125ZM2.51562 9.13281C3.44531 10.0443 4.54818 10.5 5.82422 10.5C7.10026 10.5 8.19401 10.0443 9.10547 9.13281C10.0352 8.20312 10.5 7.10026 10.5 5.82422C10.5 4.54818 10.0352 3.45443 9.10547 2.54297C8.19401 1.61328 7.10026 1.14844 5.82422 1.14844C4.54818 1.14844 3.44531 1.61328 2.51562 2.54297C1.60417 3.45443 1.14844 4.54818 1.14844 5.82422C1.14844 7.10026 1.60417 8.20312 2.51562 9.13281ZM1.69531 1.72266C2.84375 0.574219 4.22005 0 5.82422 0C7.42839 0 8.79557 0.574219 9.92578 1.72266C11.0742 2.85286 11.6484 4.22005 11.6484 5.82422C11.6484 7.42839 11.0742 8.80469 9.92578 9.95312C8.79557 11.0833 7.42839 11.6484 5.82422 11.6484C4.22005 11.6484 2.84375 11.0833 1.69531 9.95312C0.565104 8.80469 0 7.42839 0 5.82422C0 4.22005 0.565104 2.85286 1.69531 1.72266Z" fill="#6B7280"/>
</svg>
