<svg width="40" height="40" viewBox="0 0 40 40" fill="none" xmlns="http://www.w3.org/2000/svg">
<rect width="40" height="40" rx="8" fill="#2563EB"/>
<path d="M19.1196 14.9603V17.5553C19.1264 17.8714 19.0377 18.1821 18.865 18.4469C18.6922 18.7117 18.4436 18.9182 18.1516 19.0393C17.9577 19.1201 17.7497 19.1619 17.5396 19.1623H14.9396C14.5202 19.1623 14.1177 18.9966 13.8199 18.7012C13.5221 18.4059 13.353 18.0048 13.3496 17.5853V14.9903C13.3493 14.7816 13.3903 14.5749 13.4702 14.382C13.55 14.1891 13.6672 14.014 13.8149 13.8665C13.9626 13.719 14.1381 13.6022 14.3311 13.5227C14.5241 13.4432 14.7309 13.4027 14.9396 13.4033H17.5396C17.9539 13.4058 18.3509 13.57 18.646 13.8608C18.9411 14.1516 19.111 14.5461 19.1196 14.9603ZM19.1196 22.4553V25.0503C19.1201 25.4702 18.9541 25.8731 18.6579 26.1706C18.3616 26.4682 17.9595 26.636 17.5396 26.6373H14.9396C14.5184 26.6373 14.1145 26.4702 13.8164 26.1727C13.5183 25.8752 13.3504 25.4715 13.3496 25.0503V22.4553C13.3517 22.0355 13.5203 21.6336 13.8184 21.338C14.1165 21.0423 14.5198 20.877 14.9396 20.8783H17.5396C17.9581 20.8783 18.3596 21.0444 18.6558 21.34C18.952 21.6357 19.1188 22.0368 19.1196 22.4553ZM26.6596 14.9603V17.5553C26.6656 17.9718 26.5073 18.3739 26.2191 18.6746C25.931 18.9753 25.536 19.1505 25.1196 19.1623H22.5296C22.1102 19.1623 21.7077 18.9966 21.4099 18.7012C21.1121 18.4059 20.943 18.0048 20.9396 17.5853V14.9903C20.9393 14.7816 20.9803 14.5749 21.0602 14.382C21.14 14.1891 21.2572 14.014 21.4049 13.8665C21.5526 13.719 21.7281 13.6022 21.9211 13.5227C22.1141 13.4432 22.3209 13.4027 22.5296 13.4033H25.1196C25.5269 13.4161 25.9138 13.5847 26.2004 13.8744C26.487 14.1642 26.6514 14.5529 26.6596 14.9603ZM26.6596 22.4753V25.0703C26.6603 25.4834 26.4997 25.8803 26.2121 26.1768C25.9245 26.4732 25.5325 26.6456 25.1196 26.6573H22.5296C22.1084 26.6573 21.7045 26.4902 21.4064 26.1927C21.1083 25.8952 20.9404 25.4915 20.9396 25.0703V22.4753C20.942 22.0556 21.1107 21.6539 21.4087 21.3583C21.7068 21.0627 22.1098 20.8973 22.5296 20.8983H25.1196C25.5303 20.9112 25.9201 21.0827 26.2072 21.3767C26.4943 21.6707 26.6565 22.0644 26.6596 22.4753Z" fill="white"/>
<path d="M29.25 17.695C29.0521 17.6924 28.863 17.6127 28.7229 17.4728C28.5828 17.3329 28.5029 17.1439 28.5 16.946V13.862C28.5072 13.5495 28.4506 13.2388 28.3337 12.949C28.2168 12.6591 28.042 12.3961 27.82 12.176C27.3807 11.7416 26.7879 11.4976 26.17 11.497H23.12C22.9215 11.497 22.731 11.4183 22.5904 11.278C22.4498 11.1378 22.3706 10.9476 22.37 10.749C22.3703 10.5503 22.4494 10.3598 22.5901 10.2193C22.7307 10.0789 22.9213 10 23.12 10H26.2C27.2134 10.0255 28.176 10.4487 28.88 11.178C29.2362 11.5323 29.5186 11.9537 29.7108 12.4178C29.9031 12.882 30.0014 13.3796 30 13.882V16.966C29.9946 17.1612 29.9131 17.3467 29.7731 17.4828C29.633 17.6189 29.4454 17.6951 29.25 17.695ZM26.17 30H23.12C22.9215 30 22.731 29.9213 22.5904 29.781C22.4498 29.6408 22.3706 29.4506 22.37 29.252C22.3703 29.0533 22.4494 28.8628 22.5901 28.7223C22.7307 28.5819 22.9213 28.503 23.12 28.503H26.2C26.6612 28.4993 27.1108 28.3583 27.4915 28.0979C27.8721 27.8374 28.1665 27.4695 28.337 27.041C28.4502 26.7571 28.5056 26.4535 28.5 26.148V23.094C28.5003 22.8953 28.5794 22.7048 28.7201 22.5643C28.8607 22.4239 29.0513 22.345 29.25 22.345C29.4488 22.345 29.6394 22.4239 29.78 22.5643C29.9206 22.7048 29.9998 22.8953 30 23.094V26.148C30.0019 26.9052 29.7781 27.6458 29.3573 28.2752C28.9364 28.9047 28.3375 29.3944 27.637 29.682C27.172 29.873 26.673 29.972 26.17 29.97V30ZM16.92 30H13.84C13.3343 29.9996 12.8337 29.8997 12.3666 29.7058C11.8996 29.5119 11.4753 29.2279 11.118 28.87C10.7615 28.5125 10.4792 28.0881 10.2874 27.6211C10.0955 27.1541 9.99786 26.6538 10 26.149V23.095C10.0003 22.8963 10.0794 22.7058 10.2201 22.5653C10.3607 22.4249 10.5513 22.346 10.75 22.346C10.9488 22.346 11.1394 22.4249 11.28 22.5653C11.4206 22.7058 11.4998 22.8963 11.5 23.095V26.149C11.5024 26.7675 11.7502 27.3598 12.1889 27.7957C12.6277 28.2316 13.2215 28.4756 13.84 28.474H16.92C17.1188 28.474 17.3094 28.5529 17.45 28.6933C17.5906 28.8338 17.6698 29.0243 17.67 29.223C17.6702 29.3214 17.6508 29.4189 17.6132 29.5099C17.5755 29.6008 17.5202 29.6834 17.4505 29.7529C17.3808 29.8224 17.2981 29.8775 17.2071 29.9149C17.116 29.9523 17.0185 29.9714 16.92 29.971V30ZM10.75 17.695C10.5521 17.6924 10.363 17.6127 10.2229 17.4728C10.0828 17.3329 10.0029 17.1439 10 16.946V13.862C10.0027 12.8542 10.4056 11.8888 11.12 11.178C11.8412 10.4635 12.8148 10.0618 13.83 10.06H16.91C17.1088 10.06 17.2994 10.1389 17.44 10.2793C17.5806 10.4198 17.6598 10.6103 17.66 10.809C17.6595 11.0076 17.5803 11.1978 17.4397 11.338C17.2991 11.4783 17.1086 11.557 16.91 11.557H13.83C13.2115 11.5551 12.6175 11.799 12.1787 12.235C11.7398 12.671 11.4922 13.2634 11.49 13.882V16.966C11.4846 17.1595 11.4046 17.3435 11.2667 17.4793C11.1287 17.6152 10.9436 17.6925 10.75 17.695Z" fill="white"/>
</svg>
