<svg width="21" height="18" viewBox="0 0 21 18" fill="none" xmlns="http://www.w3.org/2000/svg">
<g clip-path="url(#clip0_6051_840)">
<path d="M0 3.95555V14.847C0 15.4798 0.355078 16.0774 0.949219 16.2989C4.00781 17.4415 7.06641 16.661 10.125 15.8805C12.9305 15.1669 15.7359 14.4497 18.5379 15.2161C19.3465 15.4376 20.25 14.8821 20.25 14.0419V3.15399C20.25 2.52117 19.8949 1.92352 19.3008 1.70203C16.2422 0.559456 13.1836 1.33992 10.125 2.12039C7.31953 2.83406 4.51406 3.54774 1.71211 2.78133C0.9 2.55985 0 3.11531 0 3.95555ZM10.125 12.3755C8.57109 12.3755 7.3125 10.8638 7.3125 9.00047C7.3125 7.13719 8.57109 5.62547 10.125 5.62547C11.6789 5.62547 12.9375 7.13719 12.9375 9.00047C12.9375 10.8638 11.6789 12.3755 10.125 12.3755ZM2.25 12.3755C3.49102 12.3755 4.5 13.3845 4.5 14.6255H2.25V12.3755ZM4.5 5.06297C4.5 6.30399 3.49102 7.31297 2.25 7.31297V5.06297H4.5ZM18 10.688V12.938H15.75C15.75 11.697 16.759 10.688 18 10.688ZM15.75 3.37547H18V5.62547C16.759 5.62547 15.75 4.61649 15.75 3.37547Z" fill="#4B5563"/>
</g>
<defs>
<clipPath id="clip0_6051_840">
<path d="M0 0H20.25V18H0V0Z" fill="white"/>
</clipPath>
</defs>
</svg>
