<svg width="40" height="40" viewBox="0 0 40 40" fill="none" xmlns="http://www.w3.org/2000/svg">
<rect width="40" height="40" rx="8" fill="#FEE2E2"/>
<path d="M13.0156 26.9844H27.0312V20.9844H26.7969C25.8594 20.9844 25.1094 20.6719 24.5469 20.0469C23.9219 20.6719 23.1719 20.9844 22.2969 20.9844C21.4531 20.9844 20.6875 20.6719 20 20.0469C19.375 20.6719 18.6406 20.9844 17.7969 20.9844C16.8594 20.9844 16.0781 20.6719 15.4531 20.0469C14.8906 20.6719 14.1562 20.9844 13.25 20.9844H13.0156V26.9844ZM12.0312 17.375C11.9375 17.8125 12.0312 18.2031 12.3125 18.5469C12.5312 18.8594 12.8438 19.0156 13.25 19.0156C13.9062 19.0156 14.2969 18.625 14.4219 17.8438L15.0312 13.0156H13.0625L12.0312 17.375ZM16.4844 17.6562C16.4844 18 16.5938 18.3125 16.8125 18.5938C17.0625 18.875 17.3594 19.0156 17.7031 19.0156C18.0781 19.0156 18.3906 18.8906 18.6406 18.6406C18.8906 18.3594 19.0156 18.0469 19.0156 17.7031V13.0156H17.0469L16.4844 17.5156V17.6562ZM20.9844 13.0156V17.7031C20.9844 18.0469 21.1094 18.3594 21.3594 18.6406C21.6094 18.8906 21.8906 19.0156 22.2031 19.0156C22.6094 19.0156 22.9375 18.875 23.1875 18.5938C23.4688 18.2812 23.5781 17.9219 23.5156 17.5156L22.9531 13.0156H20.9844ZM26.8906 12.9688L24.9688 13.0156L25.5781 17.8438C25.6094 18.1562 25.7344 18.4375 25.9531 18.6875C26.1719 18.9062 26.4375 19.0156 26.75 19.0156C27.125 19.0156 27.4375 18.8594 27.6875 18.5469C27.9688 18.2031 28.0625 17.8125 27.9688 17.375L26.8906 12.9688ZM29.8906 16.9062C30.1406 18 29.9375 18.9531 29.2812 19.7656L29 20.0469V26.9844C29 27.5156 28.7969 27.9844 28.3906 28.3906C27.9844 28.7969 27.5156 29 26.9844 29H13.0156C12.4844 29 12.0156 28.7969 11.6094 28.3906C11.2031 27.9844 11 27.5156 11 26.9844V20.0469L10.7188 19.7656C10.0625 18.9531 9.85938 18 10.1094 16.9062L11.1406 12.5C11.2344 12.0625 11.4688 11.7031 11.8438 11.4219C12.2188 11.1406 12.625 11 13.0625 11H26.9375C27.375 11 27.7656 11.1406 28.1094 11.4219C28.4844 11.7031 28.7344 12.0625 28.8594 12.5L29.8906 16.9062Z" fill="#EF4444"/>
</svg>
