<svg width="18" height="18" viewBox="0 0 18 18" fill="none" xmlns="http://www.w3.org/2000/svg">
<path d="M18 18H0V0H18V18Z" stroke="#E5E7EB"/>
<path d="M2.25 1.125C1.00898 1.125 0 2.13398 0 3.375V14.625C0 15.866 1.00898 16.875 2.25 16.875H15.75C16.991 16.875 18 15.866 18 14.625V6.75C18 5.50898 16.991 4.5 15.75 4.5H2.8125C2.50312 4.5 2.25 4.24688 2.25 3.9375C2.25 3.62812 2.50312 3.375 2.8125 3.375H15.75C16.3723 3.375 16.875 2.87227 16.875 2.25C16.875 1.62773 16.3723 1.125 15.75 1.125H2.25ZM14.625 9.5625C14.9234 9.5625 15.2095 9.68103 15.4205 9.892C15.6315 10.103 15.75 10.3891 15.75 10.6875C15.75 10.9859 15.6315 11.272 15.4205 11.483C15.2095 11.694 14.9234 11.8125 14.625 11.8125C14.3266 11.8125 14.0405 11.694 13.8295 11.483C13.6185 11.272 13.5 10.9859 13.5 10.6875C13.5 10.3891 13.6185 10.103 13.8295 9.892C14.0405 9.68103 14.3266 9.5625 14.625 9.5625Z" fill="#4B5563"/>
</svg>
