<svg width="16" height="18" viewBox="0 0 16 18" fill="none" xmlns="http://www.w3.org/2000/svg">
<g clip-path="url(#clip0_4085_2479)">
<path d="M12.8037 2.946C11.9459 2.08818 10.5537 2.08818 9.6959 2.946L3.22715 9.41475C1.74707 10.8948 1.74707 13.2925 3.22715 14.7726C4.70723 16.2526 7.10488 16.2526 8.58496 14.7726L13.9287 9.42881C14.3119 9.04561 14.9377 9.04561 15.3209 9.42881C15.7041 9.81201 15.7041 10.4378 15.3209 10.821L9.97715 16.1647C7.72715 18.4147 4.08496 18.4147 1.83496 16.1647C-0.415039 13.9147 -0.415039 10.2726 1.83496 8.02256L8.30371 1.55381C9.93145 -0.0739258 12.5682 -0.0739258 14.1959 1.55381C15.8236 3.18154 15.8236 5.81826 14.1959 7.446L8.0084 13.6335C7.00293 14.639 5.37168 14.639 4.36621 13.6335C3.36074 12.628 3.36074 10.9968 4.36621 9.99131L9.42871 4.92881C9.81191 4.54561 10.4377 4.54561 10.8209 4.92881C11.2041 5.31201 11.2041 5.93779 10.8209 6.321L5.7584 11.3835C5.52285 11.619 5.52285 12.0058 5.7584 12.2413C5.99395 12.4769 6.38066 12.4769 6.61621 12.2413L12.8037 6.05381C13.6615 5.196 13.6615 3.80381 12.8037 2.946Z" fill="#4B5563"/>
</g>
<defs>
<clipPath id="clip0_4085_2479">
<path d="M0 0H15.75V18H0V0Z" fill="white"/>
</clipPath>
</defs>
</svg>
