<svg width="14" height="24" viewBox="0 0 14 24" fill="none" xmlns="http://www.w3.org/2000/svg">
<path d="M14 24H0V0H14V24Z" stroke="#E5E7EB"/>
<g clip-path="url(#clip0_6051_708)">
<path d="M7.75001 5.5V12H9.25001V5.83438C9.99688 6.26562 10.5 7.075 10.5 8V12H12V8C12 5.79063 10.2094 4 8.00001 4H6.00001C3.79063 4 2.00001 5.79063 2.00001 8V12H3.50001V8C3.50001 7.075 4.00313 6.26562 4.75001 5.83438V12H6.25001V5.5H7.75001ZM1.50001 13C1.12188 13 0.77501 13.2125 0.60626 13.5531L0.10626 14.5531C-0.0499904 14.8625 -0.0312404 15.2312 0.15001 15.525C0.33126 15.8187 0.653135 16 1.00001 16V19C1.00001 19.5531 1.44688 20 2.00001 20C2.55313 20 3.00001 19.5531 3.00001 19V16H11V19C11 19.5531 11.4469 20 12 20C12.5531 20 13 19.5531 13 19V16C13.3469 16 13.6688 15.8219 13.85 15.525C14.0313 15.2281 14.05 14.8625 13.8938 14.5531L13.3938 13.5531C13.225 13.2125 12.8781 13 12.5 13H1.50001Z" fill="#3B82F6"/>
</g>
<defs>
<clipPath id="clip0_6051_708">
<path d="M0 4H14V20H0V4Z" fill="white"/>
</clipPath>
</defs>
</svg>
