<svg width="30" height="21" viewBox="0 0 30 21" fill="none" xmlns="http://www.w3.org/2000/svg">
<path d="M13.125 0.00468752C12.5016 0.00468752 12 0.50625 12 1.12969C12 1.75313 12.5016 2.25469 13.125 2.25469H15.8297L16.5984 3.675L12 7.50469L9.87656 5.38125C9.31406 4.81875 8.55 4.50469 7.75312 4.50469H3C2.17031 4.50469 1.5 5.175 1.5 6.00469V7.50469H6C10.1438 7.50469 13.5 10.8609 13.5 15.0047C13.5 15.5203 13.4484 16.0219 13.35 16.5047H16.65C16.5516 16.0219 16.5 15.5203 16.5 15.0047C16.5 12.5578 17.6719 10.3828 19.4859 9.01406L20.2078 10.3547C18.8625 11.4563 18 13.1297 18 15.0047C18 18.3188 20.6859 21.0047 24 21.0047C27.3141 21.0047 30 18.3188 30 15.0047C30 11.6906 27.3141 9.00469 24 9.00469C23.3672 9.00469 22.7578 9.10313 22.1859 9.28594L19.6031 4.50469H22.5C23.3297 4.50469 24 3.83437 24 3.00469V1.50469C24 0.675 23.3297 0.00468752 22.5 0.00468752H21.5438C21.1922 0.00468752 20.8547 0.126563 20.5828 0.351563L18.3609 2.20312L17.7047 0.984375C17.3766 0.379688 16.7437 0 16.0547 0H13.125V0.00468752ZM21.6891 13.0922L23.0109 15.5391C23.3062 16.0875 23.9906 16.2891 24.5344 15.9938C25.0781 15.6984 25.2844 15.0141 24.9891 14.4703L23.6672 12.0234C23.775 12.0094 23.8875 12.0047 24 12.0047C25.6547 12.0047 27 13.35 27 15.0047C27 16.6594 25.6547 18.0047 24 18.0047C22.3453 18.0047 21 16.6594 21 15.0047C21 14.2781 21.2578 13.6125 21.6891 13.0922ZM8.77969 16.1297C8.33438 17.2313 7.25625 18.0047 6 18.0047C4.34531 18.0047 3 16.6594 3 15.0047C3 13.35 4.34531 12.0047 6 12.0047C7.26094 12.0047 8.33906 12.7781 8.77969 13.8797H11.8922C11.3672 11.1047 8.92969 9.00469 6 9.00469C2.68594 9.00469 0 11.6906 0 15.0047C0 18.3188 2.68594 21.0047 6 21.0047C8.92969 21.0047 11.3672 18.9047 11.8969 16.1297H8.77969ZM6 16.5047C6.39782 16.5047 6.77936 16.3467 7.06066 16.0653C7.34196 15.784 7.5 15.4025 7.5 15.0047C7.5 14.6069 7.34196 14.2253 7.06066 13.944C6.77936 13.6627 6.39782 13.5047 6 13.5047C5.60218 13.5047 5.22064 13.6627 4.93934 13.944C4.65804 14.2253 4.5 14.6069 4.5 15.0047C4.5 15.4025 4.65804 15.784 4.93934 16.0653C5.22064 16.3467 5.60218 16.5047 6 16.5047Z" fill="#F0C419"/>
</svg>
