<svg width="30" height="24" viewBox="0 0 30 24" fill="none" xmlns="http://www.w3.org/2000/svg">
<g clip-path="url(#clip0_6350_29)">
<path d="M13.125 1.4998C12.5016 1.4998 12 2.00137 12 2.6248C12 3.24824 12.5016 3.7498 13.125 3.7498H15.8297L16.5984 5.17012L12 8.9998L9.87656 6.87637C9.31406 6.31387 8.55 5.9998 7.75312 5.9998H3C2.17031 5.9998 1.5 6.67012 1.5 7.4998V8.9998H6C10.1438 8.9998 13.5 12.3561 13.5 16.4998C13.5 17.0154 13.4484 17.517 13.35 17.9998H16.65C16.5516 17.517 16.5 17.0154 16.5 16.4998C16.5 14.0529 17.6719 11.8779 19.4859 10.5092L20.2078 11.8498C18.8625 12.9514 18 14.6248 18 16.4998C18 19.8139 20.6859 22.4998 24 22.4998C27.3141 22.4998 30 19.8139 30 16.4998C30 13.1857 27.3141 10.4998 24 10.4998C23.3672 10.4998 22.7578 10.5982 22.1859 10.7811L19.6031 5.9998H22.5C23.3297 5.9998 24 5.32949 24 4.4998V2.9998C24 2.17012 23.3297 1.4998 22.5 1.4998H21.5438C21.1922 1.4998 20.8547 1.62168 20.5828 1.84668L18.3609 3.69824L17.7047 2.47949C17.3766 1.8748 16.7437 1.49512 16.0547 1.49512H13.125V1.4998ZM21.6891 14.5873L23.0109 17.0342C23.3062 17.5826 23.9906 17.7842 24.5344 17.4889C25.0781 17.1936 25.2844 16.5092 24.9891 15.9654L23.6672 13.5186C23.775 13.5045 23.8875 13.4998 24 13.4998C25.6547 13.4998 27 14.8451 27 16.4998C27 18.1545 25.6547 19.4998 24 19.4998C22.3453 19.4998 21 18.1545 21 16.4998C21 15.7732 21.2578 15.1076 21.6891 14.5873ZM8.77969 17.6248C8.33438 18.7264 7.25625 19.4998 6 19.4998C4.34531 19.4998 3 18.1545 3 16.4998C3 14.8451 4.34531 13.4998 6 13.4998C7.26094 13.4998 8.33906 14.2732 8.77969 15.3748H11.8922C11.3672 12.5998 8.92969 10.4998 6 10.4998C2.68594 10.4998 0 13.1857 0 16.4998C0 19.8139 2.68594 22.4998 6 22.4998C8.92969 22.4998 11.3672 20.3998 11.8969 17.6248H8.77969ZM6 17.9998C6.39782 17.9998 6.77936 17.8418 7.06066 17.5605C7.34196 17.2792 7.5 16.8976 7.5 16.4998C7.5 16.102 7.34196 15.7204 7.06066 15.4391C6.77936 15.1578 6.39782 14.9998 6 14.9998C5.60218 14.9998 5.22064 15.1578 4.93934 15.4391C4.65804 15.7204 4.5 16.102 4.5 16.4998C4.5 16.8976 4.65804 17.2792 4.93934 17.5605C5.22064 17.8418 5.60218 17.9998 6 17.9998Z" fill="#9CA3AF"/>
</g>
<defs>
<clipPath id="clip0_6350_29">
<path d="M0 0H30V24H0V0Z" fill="white"/>
</clipPath>
</defs>
</svg>
