<svg width="176" height="176" viewBox="0 0 176 176" fill="none" xmlns="http://www.w3.org/2000/svg">
<g opacity="0.1">
<path d="M176 176H-80V-80H176V176Z" stroke="#E5E7EB"/>
<path d="M48 -54.4004C82.1334 -54.4004 107.733 -41.6004 124.8 -16.0004C141.867 9.59961 141.867 35.1996 124.8 60.7996H99.2C107.733 43.7329 107.733 26.6663 99.2 9.59961C90.6667 -7.46706 77.8667 -16.0004 60.8 -16.0004V150.4H35.2V-16.0004C18.1334 -16.0004 5.33335 -7.46706 -3.19998 9.59961C-11.7333 26.6663 -11.7333 43.7329 -3.19998 60.7996H-28.8C-45.8666 35.1996 -45.8666 9.59961 -28.8 -16.0004C-11.7333 -41.6004 13.8667 -54.4004 48 -54.4004Z" fill="#1E3A5F"/>
</g>
</svg>
