<svg width="16" height="24" viewBox="0 0 16 24" fill="none" xmlns="http://www.w3.org/2000/svg">
<path d="M16 24H0V0H16V24Z" stroke="#E5E7EB"/>
<path d="M16 20H0V4H16V20Z" stroke="#E5E7EB"/>
<path d="M14.4842 11.0002H14.7498C15.1654 11.0002 15.4998 10.6658 15.4998 10.2502V6.25022C15.4998 5.9471 15.3186 5.6721 15.0373 5.55647C14.7561 5.44085 14.4342 5.50335 14.2186 5.71897L12.9186 7.01897C10.1811 4.31585 5.77168 4.32522 3.0498 7.05022C0.31543 9.7846 0.31543 14.2158 3.0498 16.9502C5.78418 19.6846 10.2154 19.6846 12.9498 16.9502C13.3404 16.5596 13.3404 15.9252 12.9498 15.5346C12.5592 15.144 11.9248 15.144 11.5342 15.5346C9.58105 17.4877 6.41543 17.4877 4.4623 15.5346C2.50918 13.5815 2.50918 10.4158 4.4623 8.46272C6.40605 6.51897 9.54668 6.5096 11.5029 8.43147L10.2186 9.71897C10.0029 9.9346 9.94043 10.2565 10.0561 10.5377C10.1717 10.819 10.4467 11.0002 10.7498 11.0002H14.4842Z" fill="white"/>
</svg>
