<svg width="222" height="222" viewBox="0 0 222 222" fill="none" xmlns="http://www.w3.org/2000/svg">
<path d="M214.568 214.568H6.56836V6.56836H214.568V214.568Z" stroke="#E5E7EB"/>
<path d="M110.568 214.568C168.006 214.568 214.568 168.006 214.568 110.568C214.568 53.1307 168.006 6.56836 110.568 6.56836C53.1307 6.56836 6.56836 53.1307 6.56836 110.568C6.56836 168.006 53.1307 214.568 110.568 214.568Z" stroke="#F3F4F6" stroke-width="13.1368"/>
<path d="M110.568 214.568C168.006 214.568 214.568 168.006 214.568 110.568C214.568 53.1307 168.006 6.56836 110.568 6.56836C53.1307 6.56836 6.56836 53.1307 6.56836 110.568C6.56836 168.006 53.1307 214.568 110.568 214.568Z" stroke="#F0C419" stroke-width="13.1368" stroke-linecap="round" stroke-dasharray="653.56 653.56"/>
</svg>
