<svg width="30" height="40" viewBox="0 0 30 40" fill="none" xmlns="http://www.w3.org/2000/svg">
<path d="M22 0C26.4183 0 30 3.58172 30 8V32C30 36.4183 26.4183 40 22 40H8C3.58172 40 0 36.4183 0 32V8C0 3.58172 3.58172 0 8 0H22Z" fill="#F1F5F9"/>
<path d="M22 0C26.4183 0 30 3.58172 30 8V32C30 36.4183 26.4183 40 22 40H8C3.58172 40 0 36.4183 0 32V8C0 3.58172 3.58172 0 8 0H22Z" stroke="#E5E7EB"/>
<path d="M22 29H8V12H22V29Z" stroke="#E5E7EB"/>
<g clip-path="url(#clip0_6051_700)">
<path d="M20.25 24.25H15C14.0348 24.25 13.25 23.4652 13.25 22.5V15.5C13.25 14.5348 14.0348 13.75 15 13.75H18.8309C19.1781 13.75 19.5117 13.8895 19.7578 14.1355L21.6145 15.9922C21.8605 16.2383 22 16.5719 22 16.9191V22.5C22 23.4652 21.2152 24.25 20.25 24.25ZM9.75 17.25H12.375V18.5625H9.75C9.50937 18.5625 9.3125 18.7594 9.3125 19V26C9.3125 26.2406 9.50937 26.4375 9.75 26.4375H15C15.2406 26.4375 15.4375 26.2406 15.4375 26V25.125H16.75V26C16.75 26.9652 15.9652 27.75 15 27.75H9.75C8.78477 27.75 8 26.9652 8 26V19C8 18.0348 8.78477 17.25 9.75 17.25Z" fill="#475569"/>
</g>
<defs>
<clipPath id="clip0_6051_700">
<path d="M8 13.75H22V27.75H8V13.75Z" fill="white"/>
</clipPath>
</defs>
</svg>
