<svg width="23" height="30" viewBox="0 0 23 30" fill="none" xmlns="http://www.w3.org/2000/svg">
<g clip-path="url(#clip0_6051_2039)">
<path d="M0.820312 0.128899C1.31836 -0.0996163 1.9043 -0.017585 2.32031 0.339837L4.6875 2.36718L7.05469 0.339837C7.58203 -0.111335 8.36133 -0.111335 8.88281 0.339837L11.25 2.36718L13.6172 0.339837C14.1445 -0.111335 14.9238 -0.111335 15.4453 0.339837L17.8125 2.36718L20.1797 0.339837C20.5957 -0.017585 21.1816 -0.0996163 21.6797 0.128899C22.1777 0.357415 22.5 0.855462 22.5 1.40624V28.5937C22.5 29.1445 22.1777 29.6426 21.6797 29.8711C21.1816 30.0996 20.5957 30.0176 20.1797 29.6602L17.8125 27.6328L15.4453 29.6602C14.918 30.1113 14.1387 30.1113 13.6172 29.6602L11.25 27.6328L8.88281 29.6602C8.35547 30.1113 7.57617 30.1113 7.05469 29.6602L4.6875 27.6328L2.32031 29.6602C1.9043 30.0176 1.31836 30.0996 0.820312 29.8711C0.322266 29.6426 0 29.1445 0 28.5937V1.40624C0 0.855462 0.322266 0.357415 0.820312 0.128899ZM5.625 8.43749C5.10938 8.43749 4.6875 8.85937 4.6875 9.37499C4.6875 9.89062 5.10938 10.3125 5.625 10.3125H16.875C17.3906 10.3125 17.8125 9.89062 17.8125 9.37499C17.8125 8.85937 17.3906 8.43749 16.875 8.43749H5.625ZM4.6875 20.625C4.6875 21.1406 5.10938 21.5625 5.625 21.5625H16.875C17.3906 21.5625 17.8125 21.1406 17.8125 20.625C17.8125 20.1094 17.3906 19.6875 16.875 19.6875H5.625C5.10938 19.6875 4.6875 20.1094 4.6875 20.625ZM5.625 14.0625C5.10938 14.0625 4.6875 14.4844 4.6875 15C4.6875 15.5156 5.10938 15.9375 5.625 15.9375H16.875C17.3906 15.9375 17.8125 15.5156 17.8125 15C17.8125 14.4844 17.3906 14.0625 16.875 14.0625H5.625Z" fill="#2A3B5A"/>
</g>
<defs>
<clipPath id="clip0_6051_2039">
<path d="M0 0H22.5V30H0V0Z" fill="white"/>
</clipPath>
</defs>
</svg>
