<svg width="40" height="40" viewBox="0 0 40 40" fill="none" xmlns="http://www.w3.org/2000/svg">
<path d="M20 0C31.0457 0 40 8.95431 40 20C40 31.0457 31.0457 40 20 40C8.95431 40 0 31.0457 0 20C0 8.95431 8.95431 0 20 0Z" fill="#25D366"/>
<path d="M20 0C31.0457 0 40 8.95431 40 20C40 31.0457 31.0457 40 20 40C8.95431 40 0 31.0457 0 20C0 8.95431 8.95431 0 20 0Z" stroke="#E5E7EB"/>
<path d="M28.75 34H11.25V6H28.75V34Z" stroke="#E5E7EB"/>
<g clip-path="url(#clip0_6244_265)">
<path d="M26.1289 13.293C24.4922 11.6523 22.3125 10.75 19.9961 10.75C15.2148 10.75 11.3242 14.6406 11.3242 19.4219C11.3242 20.9492 11.7227 22.4414 12.4805 23.7578L11.25 28.25L15.8477 27.043C17.1133 27.7344 18.5391 28.0977 19.9922 28.0977H19.9961C24.7734 28.0977 28.75 24.207 28.75 19.4258C28.75 17.1094 27.7656 14.9336 26.1289 13.293ZM19.9961 26.6367C18.6992 26.6367 17.4297 26.2891 16.3242 25.6328L16.0625 25.4766L13.3359 26.1914L14.0625 23.5312L13.8906 23.2578C13.168 22.1094 12.7891 20.7852 12.7891 19.4219C12.7891 15.4492 16.0234 12.2148 20 12.2148C21.9258 12.2148 23.7344 12.9648 25.0938 14.3281C26.4531 15.6914 27.2891 17.5 27.2852 19.4258C27.2852 23.4023 23.9688 26.6367 19.9961 26.6367ZM23.9492 21.2383C23.7344 21.1289 22.668 20.6055 22.4688 20.5352C22.2695 20.4609 22.125 20.4258 21.9805 20.6445C21.8359 20.8633 21.4219 21.3477 21.293 21.4961C21.168 21.6406 21.0391 21.6602 20.8242 21.5508C19.5508 20.9141 18.7148 20.4141 17.875 18.9727C17.6523 18.5898 18.0977 18.6172 18.5117 17.7891C18.582 17.6445 18.5469 17.5195 18.4922 17.4102C18.4375 17.3008 18.0039 16.2344 17.8242 15.8008C17.6484 15.3789 17.4688 15.4375 17.3359 15.4297C17.2109 15.4219 17.0664 15.4219 16.9219 15.4219C16.7773 15.4219 16.543 15.4766 16.3438 15.6914C16.1445 15.9102 15.5859 16.4336 15.5859 17.5C15.5859 18.5664 16.3633 19.5977 16.4688 19.7422C16.5781 19.8867 17.9961 22.0742 20.1719 23.0156C21.5469 23.6094 22.0859 23.6602 22.7734 23.5586C23.1914 23.4961 24.0547 23.0352 24.2344 22.5273C24.4141 22.0195 24.4141 21.5859 24.3594 21.4961C24.3086 21.3984 24.1641 21.3438 23.9492 21.2383Z" fill="white"/>
</g>
<defs>
<clipPath id="clip0_6244_265">
<path d="M11.25 9.5H28.75V29.5H11.25V9.5Z" fill="white"/>
</clipPath>
</defs>
</svg>
